/* XPM */
static char *_0d349cf13fd4c3cac3d11eed2c942af1ao9YySGI703P5vn[] = {
/* columns rows colors chars-per-pixel */
"64 64 134 2 ",
"   c None",
".  c #2E63FF",
"X  c #2B65FF",
"o  c #2867FF",
"O  c #2B66FF",
"+  c #2E64FF",
"@  c #226AFF",
"#  c #2568FF",
"$  c #3163FF",
"%  c #5C4FFF",
"&  c #5D4FFF",
"*  c #5F4EFF",
"=  c #4C56FF",
"-  c #4C57FF",
";  c #445BFF",
":  c #415CFF",
">  c #4A58FF",
",  c #4C5DFF",
"<  c #5353FF",
"1  c #5652FF",
"2  c #5752FF",
"3  c #5753FF",
"4  c #5154FF",
"5  c #5055FF",
"6  c #5155FF",
"7  c #5454FF",
"8  c #5951FF",
"9  c #5A51FF",
"0  c #5D50FF",
"q  c #6F47FF",
"w  c #664BFF",
"e  c #624CFF",
"r  c #634CFF",
"t  c #634DFF",
"y  c #604EFF",
"u  c #604FFF",
"i  c #654CFF",
"p  c #664CFF",
"a  c #694AFF",
"s  c #694BFF",
"d  c #6A4BFF",
"f  c #6C49FF",
"g  c #6D49FF",
"h  c #6F48FF",
"j  c #7346FF",
"k  c #7247FF",
"l  c #7347FF",
"z  c #7545FF",
"x  c #7645FF",
"c  c #7843FF",
"v  c #7943FF",
"b  c #7B43FF",
"n  c #7E40FF",
"m  c #7F40FF",
"M  c #7C42FF",
"N  c #7C43FF",
"B  c #7944FF",
"V  c #7048FF",
"C  c #7D7FFF",
"Z  c #823FFF",
"A  c #863EFF",
"S  c #863FFF",
"D  c #8B3BFF",
"F  c #8E3AFF",
"G  c #8F3AFF",
"H  c #8F3BFF",
"J  c #883CFF",
"K  c #893DFF",
"L  c #8C3CFF",
"P  c #9837FF",
"I  c #9C35FF",
"U  c #9F34FF",
"Y  c #9139FF",
"T  c #9238FF",
"R  c #9239FF",
"E  c #9438FF",
"W  c #9538FF",
"Q  c #AB2EFF",
"!  c #AE2DFF",
"~  c #BD26FF",
"^  c #BE26FF",
"/  c #B42AFF",
"(  c #B12CFF",
")  c #B829FF",
"_  c #BB28FF",
"`  c #A232FF",
"'  c #A531FF",
"]  c #A830FF",
"[  c #C025FF",
"{  c #C125FF",
"}  c #8340FF",
"|  c #827CFF",
" . c #837DFF",
".. c #7D80FF",
"X. c #76C4FF",
"o. c #7FC3FF",
"O. c #8FBEFF",
"+. c #8EBFFF",
"@. c #8FBFFF",
"#. c #90BFFF",
"$. c #97BCFF",
"%. c #9CBBFF",
"&. c #9FBAFF",
"*. c #98BCFF",
"=. c #98BDFF",
"-. c #9DBCFF",
";. c #AFB6FF",
":. c #A0BAFF",
">. c #A0BBFF",
",. c #A8B9FF",
"<. c #A9B9FF",
"1. c #AAB8FF",
"2. c #AAB9FF",
"3. c #B0B7FF",
"4. c #B7B5FF",
"5. c #B8B6FF",
"6. c #B9B6FF",
"7. c #D1AFFF",
"8. c #D8ADFF",
"9. c #D8AEFF",
"0. c #D9AEFF",
"q. c #C3B0FF",
"w. c #C5B1FF",
"e. c #C6B2FF",
"r. c #C0B4FF",
"t. c #C1B4FF",
"y. c #C8B1FF",
"u. c #C9B2FF",
"i. c #D1B0FF",
"p. c #80C1FF",
"a. c #81C1FF",
"s. c #81C2FF",
"d. c #88C0FF",
"f. c #88C1FF",
/* pixels */
"                                                                                                                                ",
"                                                                                                                                ",
"                                                                                                                                ",
"                                                                                                                                ",
"                                                                                                                                ",
"                                                                                                                                ",
"                                                              @ @                                                               ",
"                                                              # #                                                               ",
"                                                              X X                                                               ",
"                                                X X           X X           X X                                                 ",
"                                                . + .                     . + .                                                 ",
"                                                  $ $                     $ $                                                   ",
"                                                                                                                                ",
"                                                            p.p.p.p.                                                            ",
"                                                          @.@.@.@.@.@.                                                          ",
"                                                        -.-.-.-.-.-.-.&.                                                        ",
"                                          : : : :       <.<.<.<.<.<.<.<.      : : : :                                           ",
"                                          ; ; ; ;       4.5.5.5.5.5.5.5.      ; ; ; ;                                           ",
"                                                        e.q.C , , ..q.e.                                                        ",
"                                                          | > > > > |                                                           ",
"                                                          = =     = =                                                           ",
"                                                        6 6 6     6 6 6                                                         ",
"                                                        7 7         < 7                                                         ",
"                                                      3 3             3 3                                                       ",
"                                                      9 9             9 9                                                       ",
"                                                    * 0                 0 *                                                     ",
"                                                  * t t       X.X.      * t t                                                   ",
"                                                  t t         o.o.        t t                                                   ",
"                                                p p w       f.f.f.f.      p p w                                                 ",
"                                                a a       @.#.#.#.#.#.      a a                                                 ",
"                                              g g g       $.=.=.=.=.=.      g g g                                               ",
"                                              V q       >.>.>.>.>.>.>.&.      g V                                               ",
"                                            k k         <.<.<.<.<.<.<.<.        k k                                             ",
"                                            z z       ;.3.3.3.3.3.3.3.3.;.      z z                                             ",
"                                          v B         5.5.5.5.5.5.5.5.5.5.        B v                                           ",
"                                        n n v       t.t.t.t.t.t.t.t.t.t.t.t.      n n v                                         ",
"                                        n n       u.u.u.u.u.u.u.u.u.u.u.u.u.u.      n n                                         ",
"                                      Z } Z       7.i.i.i.i.i.i.i.i.i.i.i.i.i.      } } Z                                       ",
"                                      S S         9.9.9.9.9.9.9.9.9.9.9.9.9.9.        S S                                       ",
"                                    K K                                                 K K                                     ",
"                                    L D                                                 D L                                     ",
"                                  F F                                                     F F                                   ",
"                                  R R R R R R R R R R R R R         R R R R R R R R R R R R R                                   ",
"                                    W W W W W W W W W W W W         W W W W W W W W W W W W                                     ",
"                                                        P P         P P                                                         ",
"                                                        U U         U U                                                         ",
"                                                        U U         U U                                                         ",
"                                                        ` `         ` `                                                         ",
"                                                        ' '         ' '                                                         ",
"                                                        ] ]         ] ]                                                         ",
"                                                        Q Q         Q Q                                                         ",
"                                                        ! !         ! !                                                         ",
"                                                        ( (         ( (                                                         ",
"                                                        / /         / /                                                         ",
"                                                        ) )         ) )                                                         ",
"                                                        ) )         ) )                                                         ",
"                                                        ~ ~ ~ ~ ~ ~ ~ ~                                                         ",
"                                                          [ [ [ [ [ [                                                           ",
"                                                                                                                                ",
"                                                                                                                                ",
"                                                                                                                                ",
"                                                                                                                                ",
"                                                                                                                                ",
"                                                                                                                                "
};
