/* XPM */
static char *abd3bd3a9fac42e8d3b47c39a2122c0aoq2ewP78ziOWK3AP[] = {
/* columns rows colors chars-per-pixel */
"32 32 5 1 ",
"  c None",
". c #725540",
"X c #896352",
"o c #A77D6A",
"O c #AB9072",
/* pixels */
"                                ",
"                                ",
"                                ",
"          XXXXX XXXXX           ",
"         XooOOoXoooooXX         ",
"        XOooooooooOooOoX        ",
"       XOoooooooooooooooX       ",
"      XoooooooOooooooOoOoX      ",
"     XoooooooooooooooooooOX     ",
"    XOoOoooOooooooooOoooooOX    ",
"   XoooooooooooOoooOooooooooX   ",
"   XooOoooooOooooooooOoOooooo   ",
"  XoooooooOoo.....OoooooooOooX  ",
"  XooooOoooo.     ..ooooooooOX  ",
"   Xooooooo.        .ooOoooooX  ",
"  XOooooooo.        .oooooOooX  ",
"  XooOooOoo.        .oOooooooX  ",
"  Xoooooooo.        .ooooooOoX  ",
"  XOooooOoo.        .ooOoooooX  ",
"  XooooooooO.      .ooOooooooX  ",
"   XoOooooooO.    .OoooooooOoX  ",
"  XoooooooOoooo ..OooooooooooX  ",
"   XooooooooooooooooooooooOoX   ",
"    XooooooooOooooooOooooooo    ",
"    XoOoooOoooOoooooooooooOX    ",
"     XooOoooooooooooooOooOX     ",
"      XooooooooooooooooooX      ",
"       XOooOooooooooooOX        ",
"        XXooOoooooOoOXX         ",
"          XooooOXoooX           ",
"           XXXX  XXXX           ",
"                                "
};
