/* XPM */
static char *_e31e669c8784f649b8db36cfc5c87f9grlAtFY6elaltOHQ[] = {
/* columns rows colors chars-per-pixel */
"32 32 41 1 ",
"  c None",
". c #003B21",
"X c #003A23",
"o c #003C24",
"O c #004912",
"+ c #005611",
"@ c #0D680B",
"# c #006E15",
"$ c #006019",
"% c #00691B",
"& c #00482B",
"* c #00492D",
"= c #006922",
"- c #017D2F",
"; c #00643B",
": c #007443",
"> c #007945",
", c #007D4C",
"< c #008A2E",
"1 c #009B2B",
"2 c #3EAF22",
"3 c #00DC14",
"4 c #0BE908",
"5 c #2AE92F",
"6 c #29E830",
"7 c #2AE830",
"8 c #008F4D",
"9 c #00975C",
"0 c #2DD659",
"q c #23C260",
"w c #3BD46E",
"e c #63C45F",
"r c #7EED79",
"t c #7EF37F",
"y c #56D886",
"u c #8BE185",
"i c #93FA88",
"p c #8CE9A4",
"a c #AEF7AE",
"s c #B0F8AE",
"d c white",
/* pixels */
"                                ",
"               9                ",
"              :%8               ",
"             :&a88              ",
"            9&aa18O             ",
"           9&aa;93OO            ",
"          *9aa;;9:3OO           ",
"         &9aa;;;9::1,3          ",
"         99d;;;w99::1-          ",
"         9&O;;qw99%%%-          ",
"         9&Oyyqw##>;;-          ",
"         9&Oyyqw##>;;-          ",
"        i9&Oyyqw##>;;=u         ",
"        i9&yyyqw+#>>;=u         ",
"        i9Oyypqw++>>;=u         ",
"        i9Opppqw++8>;=u         ",
"        i$$$ppqw++88;;u         ",
"       i@O$$ppqw++88t;ue        ",
"       i@OO$ppqw#88tt;ee        ",
"       r@2OOppqw#8ttt;=e        ",
"       r@2OO3pqw#8tt6<=e        ",
"       r@2OO3pqw#8836==d        ",
"        403O333w#335a:-         ",
"        40033333%%3as:-         ",
"        4d0da333%%as::-         ",
"         ddadXX9%Xaqad          ",
"          dd3XX9XXqad           ",
"           d33X9XXad            ",
"            a339X3a             ",
"             439X3              ",
"              49o               ",
"               d                "
};
