/* XPM */
static char *c635ff6abb1a41f5d7fe779ff855ff26Le3dX2rQ1nSmSA3e[] = {
/* columns rows colors chars-per-pixel */
"46 46 4 1 ",
"  c #9BC281",
". c #98CA98",
"X c #B4E196",
"o c #A2D1A2",
/* pixels */
"oooXoo.o.ooooooo.oo.oooo.oo.ooooooo.o.ooXooooo",
"oooo oooooo.oo.oooooooooo ooo.oo.oooooo ooooo.",
"ooo.oooooooo oooooooo..ooooooooooooooooo.ooooo",
" oooooooo oooooooooooooooXoooooooo oooooooo .o",
"ooo.oooooXoo.ooo oooooooooo ooo.ooXooooo.ooooo",
"o.ooooooooooooooooo.oooo.ooooooooooooooooo.ooo",
"ooooooooo.oooo.oooooooooooooo.oooo.ooooooooooX",
"oooo.oooooooooooooooooooooooooooooooooo.oooooo",
"oooooooooooooooooooooo oooooooooooooooooooooo.",
"oooooooooooooo.oooXooooooooooooooooooooooooooo",
"oooooo oooooooooooooooooooooooooooo.ooooooooo.",
"o Xo.ooooo.ooooooooo.ooooooooo oooooooo.oX ooo",
"oooooooooooooooooooooooooo.ooooooooooooooooooo",
"oooooooooooooooooooooooooooooooooooooooooooo.o",
" o.oooooooooooooo.oooooooooooo.ooo.oooooo.o oo",
"ooooooooooooo oooooooooooooooooooooooooooooooo",
"oooo.ooooo.oooooooooooooooooooooooooooo.oooo.o",
"oooooooooooooooooooooooooooooooooooooooooooooo",
"oo oooooXooooooooooooo.ooo oooooooXoooooo ooo.",
"oooooooooooo.ooooooooooooooooooooooo.ooooooooo",
"ooooooooooooooooo.oooooo oooooo.oooooooooooooo",
"ooo.o oooooooooooooooooooooooooooooooooo.oooo.",
"ooooooooooooooooooXooooooo.ooooooooooooooooooo",
".ooooooooooooooooooooooooooooooooooXooooooo.oo",
".oooooooXooo.oooooooooooXoooooooooooooooooo.oo",
"ooooooooooooooooooooooooooooooooooo.oooooooooo",
"ooo.ooooooooooooooooo.oooooooooooooooooo.oooo.",
"ooooooooooooooooooooooooooooo.oooooooooooooo o",
"oooooooo.oooooooo oooooooooooooooooooooooooooo",
"oo ooooooooooooooooooooooooooooooooo oooo ooo.",
"ooooooooooXooooooooooooooo.ooooooooooooooooooo",
"oooo.oooooooooooo.oooooooooooooo.oooooo.oooo.o",
"oooooooooooooooooooooooooooooooooooooooooooooo",
"oo.oooooooooo.ooooooooo ooooooooooooooooo.oooo",
"ooooooooooooooooooooooooooooooooooo oooooooo.o",
"ooooooooooooooooXooooooooooooooooooooooooooooo",
"o Xo.oooo.oooooooooooooo.oooooooooooooo.oX ooo",
"ooooooooo oooooooooooooooooooo.oXooo.oooooooo.",
"oooooooooooooo.ooo.ooooooooooooooooooooooooooo",
"oooooooooooooooooooooooooXooooooooooooooooooo.",
"oooooooooooooooooooooooooooooooooooooooooooooo",
"ooooooooo.oooo.oooooooooooooo.oooo.ooooooooooX",
"o.ooooooooooooooooo.oooo.ooooooooooooooooo.ooo",
"ooo.oooooXoo.ooo oooooooooo ooo.ooXooooo.ooooo",
" oooooooo oooooooooooooooooooooooo oooooooo .o",
"ooo.oooooooo oooooooo..ooooooooooooooooo.ooooo"
};
