/* XPM */
static char *_215e66ed0024968c5e802f9eda4c093OI9FX4Gs3a2oXHMM[] = {
/* columns rows colors chars-per-pixel */
"27 34 6 1 ",
"  c None",
". c black",
"X c #3A0911",
"o c #811426",
"O c #A11B31",
"+ c white",
/* pixels */
"                           ",
"                           ",
"                           ",
"                           ",
"           XXXXXXX         ",
"          XoOOOOOOX        ",
"         XoOOOXXXXOX       ",
"        XoOOOX....XOX      ",
"        XoOOX......XOX     ",
"       XooOOX......XOX     ",
"       XoooOX.+...+XOX     ",
"       XoXoOX.+...+XOX     ",
"       XoXoOX......XoX     ",
"        XXooOX.....XoX     ",
"          XoooX...XoX      ",
"           XXooXXXoX       ",
"          XoooOOOOOoX      ",
"         XoOOOOOOOOOoX     ",
"         XoOOOOOOOOOoX     ",
"         XOOOOOOOOOOOX     ",
"        XoOOOOOOOOOOOX     ",
"        XoOOOOOOoOOOOoX    ",
"        XoOOOOOOoOOOOoX    ",
"        XoOOOOOoXoOOooX    ",
"       XoooOoOooXooOooX    ",
"       XooooOooX.XooooX    ",
"       XoXooooX..XooXoX    ",
"        XXoXooX...XooX     ",
"         XX XXX  .XXX      ",
"            ..    .        ",
"             .    .        ",
"             .    .        ",
"                           ",
"                           "
};
