/* XPM */
static char *a4ae40a7ab4f450c8634857d03876f7a0kWFhb37FFUBmZEE[] = {
/* columns rows colors chars-per-pixel */
"32 32 13 1 ",
"  c None",
". c #675B3B",
"X c #507264",
"o c #5B917A",
"O c #BEA564",
"+ c #D0B46C",
"@ c #E4C678",
"# c #659C85",
"$ c #6AA48B",
"% c #74B398",
"& c #7CBEA2",
"* c #84C6AA",
"= c #9BCEB8",
/* pixels */
"                                ",
"          XXXXXXXXXX XXX        ",
"        XX&&&&&&&=&&X&&&XXX     ",
"      XX&&&=&&%&&%&&&&&&&&&X    ",
"     X&&&$%&&&&=&&%&=&=&&&&&X   ",
"    X&&%%*&%&&%&=&&&*&&&&=&&X   ",
"   X&%&&&&&&%&&&&*&%&&&=&&&%X   ",
"   X#*&%*&$%&%&%=&&%&=&&&=&&&X X",
"  X#*#$&%&&&&$&&&%&&&&%&%&&%&X  ",
"  XX#&#&&%&$&&&%&&=%&%&&&&%%&X  ",
"   X#o&%#%%%%&%&%&&&&$*&=&&&&X  ",
"   X###$&#&o#&$&%&&$&&&&&%&=#X X",
"  XXo#o##o#%&%&&&&%&&%&*&&&#X   ",
"  X#####o#%#%&$#$#&%$&&*%%$#X   ",
"   X#o#o####&##%#%##&#&#%##X    ",
"    XXX##o#o#o####%#o#$###XX    ",
"       X###*###**#o#*####X@.    ",
"  XXX  .X#o&#o#######o#X.++.    ",
" X&*&X .+X#o##o*##o##XX+@O.     ",
"X&=&=#X .+XXXXXXXXXXX.++O.      ",
"#=#*##X  .O+O@.     .+@O.       ",
"&#=#=#X   .O++@.  ..+O+O.       ",
"####XX.  ..++OO@..++@+O.        ",
"XX#X.+O..+OOO+O+@+O++O.         ",
"  X  .+OO...+O+O+O+@O.          ",
"      ...   .O+++++OO.          ",
"         ...O++O++O+.           ",
"       ...O+++O+O+O@.           ",
"     ..+O++O+++OOO++@..         ",
"   ..++O++OOOOOOO+++++@.        ",
"  .OOO.OOO.OO++....+..+@.       ",
"   ... ... ....    .  ..        "
};
