/* XPM */
static char *b2178e6532e74c31983677ef12367e56LQlYygCRs8vWv4e0[] = {
/* columns rows colors chars-per-pixel */
"35 32 97 2 ",
"   c None",
".  c black",
"X  c #1F1A1A",
"o  c #425C6B",
"O  c #607581",
"+  c #C5D0D5",
"@  c #9BADB7",
"#  c #6F828D",
"$  c #7F909A",
"%  c #C9C0BE",
"&  c #2D0704",
"*  c white",
"=  c #621914",
"-  c #F2DAD2",
";  c #B19E9A",
":  c #BE9B97",
">  c #8D6534",
",  c #7B4E16",
"<  c #672020",
"1  c #431A0B",
"2  c #8F3838",
"3  c #946835",
"4  c #B78C61",
"5  c #E8F1F4",
"6  c #C9D5D9",
"7  c #A9C1C9",
"8  c #B3ADAD",
"9  c #8FA1AE",
"0  c #805121",
"q  c #22021D",
"w  c #BCBCBC",
"e  c #FFF0EF",
"r  c #5E1E13",
"t  c #FDF7F6",
"y  c #D5D5D5",
"u  c #ED0D0D",
"i  c #4E0505",
"p  c #46212D",
"a  c #643641",
"s  c #230303",
"d  c #70505E",
"f  c #8B6874",
"g  c #471515",
"h  c #C7AAB2",
"j  c #D8C8CE",
"k  c #9E7583",
"l  c #BAA1AC",
"z  c #73424E",
"x  c #83515D",
"c  c #987580",
"v  c #A5838D",
"b  c #CB918E",
"n  c #310000",
"m  c #F2BAAD",
"M  c #DBB6B4",
"N  c #5A0603",
"B  c #F7D3CA",
"V  c #B3625D",
"C  c #C05E59",
"Z  c #CA928D",
"A  c #D48E8A",
"S  c #90280B",
"D  c #7F1802",
"F  c #B0582B",
"G  c #A24312",
"H  c #6B0404",
"J  c #911A1A",
"K  c #9A0707",
"L  c #470300",
"P  c #920C0C",
"I  c #711509",
"U  c #B12F2F",
"Y  c #972A0B",
"T  c #B94D25",
"R  c #B55B2C",
"E  c #CF7F55",
"W  c #1F1A1A",
"Q  c #425C6B",
"!  c #607581",
"~  c #C5D0D5",
"^  c #9BADB7",
"/  c #6F828D",
"(  c #7F909A",
")  c #C9C0BE",
"_  c #2D0704",
"`  c white",
"'  c #621914",
"]  c #F2DAD2",
"[  c #B19E9A",
"{  c #BE9B97",
"}  c #8D6534",
"|  c #7B4E16",
" . c #672020",
".. c #431A0B",
"X. c #8F3838",
"o. c #946835",
"O. c #B78C61",
/* pixels */
"                                                                      ",
"                                                                      ",
"                                                                      ",
"                                                                      ",
"                                                                      ",
"                                                                      ",
"                                                                      ",
"                                    W W W                             ",
"                                  W Q ! W W                           ",
"                                W ~ ! Q W ! W                         ",
"                              W ^ ~ ~ ! ^ W ! W                       ",
"                            W / ^ ~ ~ ( ^ Q ! W                       ",
"                            W / / ^ ^ ( Q W ! W                       ",
"                        W W W ! / / Q Q Q W ! W                       ",
"                      W W ) W Q ! Q _ _ Q W Q Q W                     ",
"                    W W ) W Q Q Q W ` ' ] ] W Q W                     ",
"                    W ) W [ W W W { ] ] ] ] ] W                       ",
"                      W [ W } | W ! ! ^ ! ^ W                         ",
"                        W } | W  .W ! ! ^ W  .W                       ",
"                          W W  . .W .. . .X.W W                       ",
"                          W ! ^ W .. .X.X. .W ! W                     ",
"                          W ! ! W | | o.o.O.W ! W                     ",
"                            W W Q Q ! ....^ W W                       ",
"                                W ....W W  .W                         ",
"                                W ..W   W  .W                         ",
"                                                                      ",
"                                                                      ",
"                                                                      ",
"                                                                      ",
"                                                                      ",
"                                                                      ",
"                                                                      "
};
